# xmcd
#
# Track frame offsets:
#	182
#	13755
#	19940
#	27365
#	37035
#	48930
#	59725
#	69685
#	79962
#	89865
#	97430
#	108860
#	118590
#	130172
#	138812
#	148940
#	158217
#	167082
#	176587
#	187367
#	197785
#	207310
#	219390
#	228082
#	239727
#	246750
#	261235
#	275440
#	279300
#	286820
#	297140
#	306647
#
# Disc length: 4181
#
# Revision: 6
# Processed by: cddbd v1.5.1PL0 Copyright (c) Steve Scherf et al.
# Submitted via: audiograbber 1.83.01
# Normalized: r5:DSETVAR1
#
DISCID=fe105320
DTITLE=Various Artist - All Time Favorite Classics [CD1]
DYEAR=1995
DGENRE=Classical
TTITLE0=Rossini - William Tell Overture
TTITLE1=Suppe - Light Cavalry Overture
TTITLE2=Chabrier - Espana
TTITLE3=Drdla - Souvenir
TTITLE4=Tchaikovsky - 1812 Overture
TTITLE5=Offenbach - Barcarolle
TTITLE6=Chopin - Barcarolle
TTITLE7=R. Korsakov - Scherherazade
TTITLE8=Bizet - Toreador Song
TTITLE9=R. Korsakov - Flight Of The Bumble Bee
TTITLE10=Chopin - Waltz In C Minor
TTITLE11=Strauss - Blue Danube
TTITLE12=Delibes - Coppelia Ballet
TTITLE13=Bach - Air On A G String
TTITLE14=Tchaikovsky - Symphony No. 5
TTITLE15=Schumann - Traumerie
TTITLE16=Ponchielli - Dance Of The Hours
TTITLE17=Grieg - Anitra's Dance
TTITLE18=Chopin - Revolutionary Etude
TTITLE19=Bizet - Carmen Overture
TTITLE20=Strauss - Tales Of Vienna Woods
TTITLE21=Tchaikovsky - Lonely Heart
TTITLE22=Wagner - Tannhauser Overture
TTITLE23=Beethoven - Symphony No. 5
TTITLE24=Brahms - Waltz In A Flat
TTITLE25=Schubert - Serenade
TTITLE26=Suppe - Poet And Peasant Overture
TTITLE27=Brahms - Symphony No. 2
TTITLE28=Schubert - Marche Militaire
TTITLE29=Strauss - Radetsky March
TTITLE30=Tchaikovsky - Neapolitan Song
TTITLE31=Waldteufel - Estudiantina
EXTD=YEAR: 1995 ID3G: 32
EXTT0=
EXTT1=
EXTT2=
EXTT3=
EXTT4=
EXTT5=
EXTT6=
EXTT7=
EXTT8=
EXTT9=
EXTT10=
EXTT11=
EXTT12=
EXTT13=
EXTT14=
EXTT15=
EXTT16=
EXTT17=
EXTT18=
EXTT19=
EXTT20=
EXTT21=
EXTT22=
EXTT23=
EXTT24=
EXTT25=
EXTT26=
EXTT27=
EXTT28=
EXTT29=
EXTT30=
EXTT31=
PLAYORDER=
